# Blender 5.1.1
# www.blender.org
mtllib gauge.mtl
o Cylinder
v 0.000000 0.300174 -0.600000
v 0.000000 -0.300174 -0.600000
v 0.195090 0.300174 -0.588471
v 0.195090 -0.300174 -0.588471
v 0.382683 0.300174 -0.554328
v 0.382683 -0.300174 -0.554328
v 0.555570 0.300174 -0.498882
v 0.555570 -0.300174 -0.498882
v 0.707107 0.300174 -0.424264
v 0.707107 -0.300174 -0.424264
v 0.831470 0.300174 -0.333342
v 0.831470 -0.300174 -0.333342
v 0.923880 0.300174 -0.229610
v 0.923880 -0.300174 -0.229610
v 0.980785 0.300174 -0.117054
v 0.980785 -0.300174 -0.117054
v 1.000000 0.300174 0.000000
v 1.000000 -0.300174 0.000000
v 0.980785 0.300174 0.117054
v 0.980785 -0.300174 0.117054
v 0.923880 0.300174 0.229610
v 0.923880 -0.300174 0.229610
v -0.923880 0.300174 0.229610
v -0.923880 -0.300174 0.229610
v -0.980785 0.300174 0.117054
v -0.980785 -0.300174 0.117054
v -1.000000 0.300174 0.000000
v -1.000000 -0.300174 0.000000
v -0.980785 0.300174 -0.117054
v -0.980785 -0.300174 -0.117054
v -0.923880 0.300174 -0.229610
v -0.923880 -0.300174 -0.229610
v -0.831470 0.300174 -0.333342
v -0.831470 -0.300174 -0.333342
v -0.707107 0.300174 -0.424264
v -0.707107 -0.300174 -0.424264
v -0.555570 0.300174 -0.498882
v -0.555570 -0.300174 -0.498882
v -0.382683 0.300174 -0.554328
v -0.382683 -0.300174 -0.554328
v -0.195090 0.300174 -0.588471
v -0.195090 -0.300174 -0.588471
v 0.000000 0.041796 -0.431681
v 0.000000 3.041796 -0.431681
v 0.058527 0.041796 -0.425917
v 0.058527 3.041796 -0.425917
v 0.114805 0.041796 -0.408845
v 0.114805 3.041796 -0.408845
v 0.166671 0.041796 -0.381122
v 0.166671 3.041796 -0.381122
v 0.212132 0.041796 -0.343814
v 0.212132 3.041796 -0.343814
v 0.249441 0.041796 -0.298353
v 0.249441 3.041796 -0.298353
v 0.277164 0.041796 -0.246487
v 0.277164 3.041796 -0.246487
v 0.294236 0.041796 -0.190209
v 0.294236 3.041796 -0.190209
v 0.300000 0.041796 -0.131681
v 0.300000 3.041796 -0.131681
v 0.294236 0.041796 -0.073154
v 0.294236 3.041796 -0.073154
v 0.277164 0.041796 -0.016876
v 0.249441 0.041796 0.034990
v 0.212132 0.041796 0.080451
v 0.166671 0.041796 0.117759
v 0.114805 0.041796 0.145482
v 0.058527 0.041796 0.162554
v 0.000000 0.041796 0.168319
v -0.058527 0.041796 0.162554
v -0.114805 0.041796 0.145482
v -0.166671 0.041796 0.117759
v -0.212132 0.041796 0.080451
v -0.249441 0.041796 0.034990
v -0.277164 0.041796 -0.016876
v -0.294236 0.041796 -0.073154
v -0.294236 3.041796 -0.073154
v -0.300000 0.041796 -0.131681
v -0.300000 3.041796 -0.131681
v -0.294236 0.041796 -0.190209
v -0.294236 3.041796 -0.190209
v -0.277164 0.041796 -0.246487
v -0.277164 3.041796 -0.246487
v -0.249441 0.041796 -0.298353
v -0.249441 3.041796 -0.298353
v -0.212132 0.041796 -0.343814
v -0.212132 3.041796 -0.343814
v -0.166671 0.041796 -0.381122
v -0.166671 3.041796 -0.381122
v -0.114805 0.041796 -0.408845
v -0.114805 3.041796 -0.408845
v -0.058527 0.041796 -0.425917
v -0.058527 3.041796 -0.425917
v 0.287173 2.666443 -0.049873
v 0.289994 2.861521 -0.059171
v 0.287388 3.041796 -0.060058
v 0.278821 2.478893 -0.022338
v 0.277164 2.457784 -0.016876
v 0.256183 2.306129 0.022377
v 0.249441 2.274404 0.034990
v 0.212132 2.160128 0.080451
v 0.209570 2.154848 0.082553
v 0.166671 2.095372 0.117759
v 0.114805 2.048639 0.145482
v 0.080536 2.031197 0.155878
v 0.058527 2.023944 0.162554
v 0.000000 2.017900 0.168319
v -0.058527 2.024591 0.162554
v -0.080536 2.032088 0.155878
v -0.114805 2.049909 0.145482
v -0.166671 2.097216 0.117759
v -0.209570 2.157166 0.082553
v -0.212132 2.162475 0.080451
v -0.249441 2.277163 0.034990
v -0.256183 2.308963 0.022377
v -0.277164 2.460850 -0.016876
v -0.278821 2.481977 -0.022338
v -0.289994 2.864728 -0.059171
v -0.287173 2.669620 -0.049873
v -0.287434 3.041796 -0.060210
vn 0.0590 -0.0000 -0.9983
vn 0.1791 -0.0000 -0.9838
vn 0.3054 -0.0000 -0.9522
vn 0.4418 -0.0000 -0.8971
vn 0.5902 -0.0000 -0.8073
vn 0.7467 -0.0000 -0.6652
vn 0.8924 -0.0000 -0.4512
vn 0.9868 -0.0000 -0.1620
vn 0.9868 -0.0000 0.1620
vn 0.8924 -0.0000 0.4512
vn -0.8924 -0.0000 0.4512
vn -0.9868 -0.0000 0.1620
vn -0.9868 -0.0000 -0.1620
vn -0.8924 -0.0000 -0.4512
vn -0.7467 -0.0000 -0.6652
vn -0.5902 -0.0000 -0.8073
vn -0.4418 -0.0000 -0.8971
vn -0.3054 -0.0000 -0.9522
vn -0.1791 -0.0000 -0.9838
vn -0.0590 -0.0000 -0.9983
vn -0.0000 -0.0000 1.0000
vn -0.0000 -1.0000 -0.0000
vn -0.0000 1.0000 -0.0000
vn 0.0980 -0.0000 -0.9952
vn 0.2903 -0.0000 -0.9569
vn 0.4714 -0.0000 -0.8819
vn 0.6344 -0.0000 -0.7730
vn 0.7730 -0.0000 -0.6344
vn 0.8819 -0.0000 -0.4714
vn 0.9569 -0.0000 -0.2903
vn 0.9952 -0.0000 -0.0980
vn 0.9952 -0.0000 0.0980
vn 0.9565 0.0001 0.2918
vn 0.8819 -0.0000 0.4714
vn 0.7730 -0.0000 0.6344
vn 0.6344 -0.0000 0.7730
vn 0.4714 -0.0000 0.8819
vn 0.2903 -0.0000 0.9569
vn 0.0980 -0.0000 0.9952
vn -0.0980 -0.0000 0.9952
vn -0.2903 -0.0000 0.9569
vn -0.4714 -0.0000 0.8819
vn -0.6344 -0.0000 0.7730
vn -0.7730 -0.0000 0.6344
vn -0.8819 -0.0000 0.4714
vn -0.9565 0.0001 0.2918
vn -0.9952 -0.0000 0.0980
vn -0.9952 -0.0000 -0.0980
vn -0.9569 -0.0000 -0.2903
vn -0.8819 -0.0000 -0.4714
vn -0.7730 -0.0000 -0.6344
vn -0.6344 -0.0000 -0.7730
vn -0.4714 -0.0000 -0.8819
vn -0.2903 -0.0000 -0.9569
vn -0.0980 -0.0000 -0.9952
vn 0.0003 0.0476 0.9989
vn 0.0008 0.1452 0.9894
vn 0.0014 0.2504 0.9681
vn 0.0020 0.3691 0.9294
vn 0.0028 0.5079 0.8614
vn 0.0037 0.6711 0.7414
vn -0.0001 0.0054 1.0000
vt 1.000000 0.500000
vt 0.968750 0.500000
vt 0.968750 1.000000
vt 1.000000 1.000000
vt 0.937500 0.500000
vt 0.937500 1.000000
vt 0.906250 0.500000
vt 0.906250 1.000000
vt 0.875000 0.500000
vt 0.875000 1.000000
vt 0.843750 0.500000
vt 0.843750 1.000000
vt 0.812500 0.500000
vt 0.812500 1.000000
vt 0.781250 0.500000
vt 0.781250 1.000000
vt 0.750000 0.500000
vt 0.750000 1.000000
vt 0.718750 0.500000
vt 0.718750 1.000000
vt 0.687500 0.500000
vt 0.687500 1.000000
vt 0.312500 0.500000
vt 0.281250 0.500000
vt 0.281250 1.000000
vt 0.312500 1.000000
vt 0.250000 0.500000
vt 0.250000 1.000000
vt 0.218750 0.500000
vt 0.218750 1.000000
vt 0.187500 0.500000
vt 0.187500 1.000000
vt 0.156250 0.500000
vt 0.156250 1.000000
vt 0.125000 0.500000
vt 0.125000 1.000000
vt 0.093750 0.500000
vt 0.093750 1.000000
vt 0.062500 0.500000
vt 0.062500 1.000000
vt 0.031250 0.500000
vt 0.031250 1.000000
vt 0.000000 0.500000
vt 0.000000 1.000000
vt 0.687500 0.902665
vt 0.706215 1.000000
vt 0.710985 0.969954
vt 0.705823 0.937441
vt 0.690533 0.906183
vt 0.656250 0.872101
vt 0.656250 0.500000
vt 0.663849 0.877389
vt 0.625000 0.853055
vt 0.625000 0.500000
vt 0.593750 0.842263
vt 0.593750 0.500000
vt 0.623239 0.852175
vt 0.562500 0.834474
vt 0.562500 0.500000
vt 0.531250 0.830358
vt 0.531250 0.500000
vt 0.543471 0.831567
vt 0.500000 0.829351
vt 0.500000 0.500000
vt 0.468750 0.830466
vt 0.468750 0.500000
vt 0.437500 0.834686
vt 0.437500 0.500000
vt 0.456529 0.831715
vt 0.406250 0.842570
vt 0.406250 0.500000
vt 0.375000 0.500000
vt 0.376761 0.852562
vt 0.375000 0.853446
vt 0.343750 0.500000
vt 0.343750 0.872561
vt 0.336151 0.877861
vt 0.312500 0.903176
vt 0.293701 1.000000
vt 0.309467 0.906697
vt 0.294177 0.937971
vt 0.289015 0.970489
vt 0.479910 0.185119
vt 0.485388 0.203178
vt 0.490000 0.250000
vt 0.485388 0.296822
vt 0.471731 0.341844
vt 0.449553 0.383337
vt 0.419706 0.419706
vt 0.383337 0.449553
vt 0.341844 0.471731
vt 0.296822 0.485388
vt 0.250000 0.490000
vt 0.203178 0.485388
vt 0.158156 0.471731
vt 0.116663 0.449553
vt 0.080294 0.419706
vt 0.050447 0.383337
vt 0.028269 0.341844
vt 0.014612 0.296822
vt 0.010000 0.250000
vt 0.014612 0.203178
vt 0.020053 0.185240
vt 0.703178 0.485388
vt 0.750000 0.490000
vt 0.796822 0.485388
vt 0.841844 0.471731
vt 0.883337 0.449553
vt 0.919706 0.419706
vt 0.949553 0.383337
vt 0.971731 0.341844
vt 0.985388 0.296822
vt 0.990000 0.250000
vt 0.985388 0.203178
vt 0.971731 0.158156
vt 0.949553 0.116663
vt 0.919706 0.080294
vt 0.883337 0.050447
vt 0.841844 0.028269
vt 0.796822 0.014612
vt 0.750000 0.010000
vt 0.703178 0.014612
vt 0.658156 0.028269
vt 0.616663 0.050447
vt 0.580294 0.080294
vt 0.550447 0.116663
vt 0.528269 0.158156
vt 0.514612 0.203178
vt 0.510000 0.250000
vt 0.514612 0.296822
vt 0.528269 0.341844
vt 0.550447 0.383337
vt 0.580294 0.419706
vt 0.616663 0.449553
vt 0.658156 0.471731
vt 0.968750 0.559444
vt 0.968750 0.703033
vt 1.000000 0.703468
vt 1.000000 0.558469
vt 0.937500 0.701204
vt 0.937500 0.561792
vt 0.933683 0.562235
vt 0.906250 0.567690
vt 0.906250 0.695783
vt 0.933683 0.700819
vt 0.875000 0.684340
vt 0.876092 0.684973
vt 0.899700 0.694142
vt 0.899700 0.569420
vt 0.876092 0.578905
vt 0.875000 0.579553
vt 0.843750 0.652253
vt 0.848180 0.660796
vt 0.859995 0.673697
vt 0.859996 0.590361
vt 0.848180 0.603392
vt 0.843750 0.611984
vt 0.841256 0.617497
vt 0.839103 0.632137
vt 0.841256 0.646761
vt 0.028365 0.558864
vt 0.000000 0.558469
vt 0.000000 0.703468
vt 0.028874 0.702567
s 0
usemtl 
f 1/1/1 3/2/1 4/3/1 2/4/1
f 3/2/2 5/5/2 6/6/2 4/3/2
f 5/5/3 7/7/3 8/8/3 6/6/3
f 7/7/4 9/9/4 10/10/4 8/8/4
f 9/9/5 11/11/5 12/12/5 10/10/5
f 11/11/6 13/13/6 14/14/6 12/12/6
f 13/13/7 15/15/7 16/16/7 14/14/7
f 15/15/8 17/17/8 18/18/8 16/16/8
f 17/17/9 19/19/9 20/20/9 18/18/9
f 19/19/10 21/21/10 22/22/10 20/20/10
f 23/23/11 25/24/11 26/25/11 24/26/11
f 25/24/12 27/27/12 28/28/12 26/25/12
f 27/27/13 29/29/13 30/30/13 28/28/13
f 29/29/14 31/31/14 32/32/14 30/30/14
f 31/31/15 33/33/15 34/34/15 32/32/15
f 33/33/16 35/35/16 36/36/16 34/34/16
f 35/35/17 37/37/17 38/38/17 36/36/17
f 37/37/18 39/39/18 40/40/18 38/38/18
f 39/39/19 41/41/19 42/42/19 40/40/19
f 41/41/20 1/43/20 2/44/20 42/42/20
f 21/21/21 23/23/21 24/26/21 22/22/21
f 2/44/22 4/3/22 6/6/22 8/8/22 10/10/22 12/12/22 14/14/22 16/16/22 18/18/22 20/20/22 22/22/22 24/26/22 26/25/22 28/28/22 30/30/22 32/32/22 34/34/22 36/36/22 38/38/22 40/40/22 42/42/22
f 7/7/23 5/5/23 3/2/23 1/43/23 41/41/23 39/39/23 37/37/23 35/35/23 33/33/23 31/31/23 29/29/23 27/27/23 25/24/23 23/23/23 21/21/23 19/19/23 17/17/23 15/15/23 13/13/23 11/11/23 9/9/23
f 43/1/24 44/4/24 46/3/24 45/2/24
f 45/2/25 46/3/25 48/6/25 47/5/25
f 47/5/26 48/6/26 50/8/26 49/7/26
f 49/7/27 50/8/27 52/10/27 51/9/27
f 51/9/28 52/10/28 54/12/28 53/11/28
f 53/11/29 54/12/29 56/14/29 55/13/29
f 55/13/30 56/14/30 58/16/30 57/15/30
f 57/15/31 58/16/31 60/18/31 59/17/31
f 59/17/32 60/18/32 62/20/32 61/19/32
f 98/45/33 63/21/33 61/19/33 62/20/33 96/46/33 95/47/33 94/48/33 97/49/33
f 100/50/34 64/51/34 63/21/34 98/45/34 99/52/34
f 101/53/35 65/54/35 64/51/35 100/50/35
f 103/55/36 66/56/36 65/54/36 101/53/36 102/57/36
f 104/58/37 67/59/37 66/56/37 103/55/37
f 106/60/38 68/61/38 67/59/38 104/58/38 105/62/38
f 107/63/39 69/64/39 68/61/39 106/60/39
f 108/65/40 70/66/40 69/64/40 107/63/40
f 110/67/41 71/68/41 70/66/41 108/65/41 109/69/41
f 111/70/42 72/71/42 71/68/42 110/67/42
f 73/72/43 72/71/43 111/70/43 112/73/43 113/74/43
f 74/75/44 73/72/44 113/74/44 114/76/44
f 75/23/45 74/75/45 114/76/45 115/77/45 116/78/45
f 120/79/46 77/25/46 76/24/46 75/23/46 116/78/46 117/80/46 119/81/46 118/82/46
f 76/24/47 77/25/47 79/28/47 78/27/47
f 78/27/48 79/28/48 81/30/48 80/29/48
f 80/29/49 81/30/49 83/32/49 82/31/49
f 82/31/50 83/32/50 85/34/50 84/33/50
f 84/33/51 85/34/51 87/36/51 86/35/51
f 86/35/52 87/36/52 89/38/52 88/37/52
f 88/37/53 89/38/53 91/40/53 90/39/53
f 96/83/23 62/84/23 60/85/23 58/86/23 56/87/23 54/88/23 52/89/23 50/90/23 48/91/23 46/92/23 44/93/23 93/94/23 91/95/23 89/96/23 87/97/23 85/98/23 83/99/23 81/100/23 79/101/23 77/102/23 120/103/23
f 90/39/54 91/40/54 93/42/54 92/41/54
f 92/41/55 93/42/55 44/44/55 43/43/55
f 92/104/22 43/105/22 45/106/22 47/107/22 49/108/22 51/109/22 53/110/22 55/111/22 57/112/22 59/113/22 61/114/22 63/115/22 64/116/22 65/117/22 66/118/22 67/119/22 68/120/22 69/121/22 70/122/22 71/123/22 72/124/22 73/125/22 74/126/22 75/127/22 76/128/22 78/129/22 80/130/22 82/131/22 84/132/22 86/133/22 88/134/22 90/135/22
f 119/136/56 94/137/56 95/138/56 118/139/56
f 97/140/57 94/137/57 119/136/57 117/141/57
f 116/142/58 115/143/58 99/144/58 98/145/58 97/140/58 117/141/58
f 102/146/59 101/147/59 100/148/59 99/144/59 115/143/59 114/149/59 113/150/59 112/151/59
f 105/152/60 104/153/60 103/154/60 102/146/60 112/151/60 111/155/60 110/156/60 109/157/60
f 108/158/61 107/159/61 106/160/61 105/152/61 109/157/61
f 120/161/62 118/162/62 95/163/62 96/164/62
o Cylinder.001
