#DATAKIT Version 251
mtllib .\113316_parts_bin.mtl
#
#	object XTBREP
#
v 0.002926 -58.501755 0.000024
v 162.002930 58.498245 0.000033
v 162.002930 -58.501755 0.000024
v 0.002926 58.498245 0.000033
v 0.002926 58.498238 72.000031
v 0.002926 -58.501762 72.000023
v 10.002926 -56.501762 72.000023
v 162.002930 -58.501762 72.000023
v 160.002930 -56.501762 72.000023
v 162.002930 58.498238 72.000031
v 10.002926 56.498238 72.000031
v 160.002930 56.498238 72.000031
v 82.002922 0.498244 2.000028
v 160.002930 -56.501755 2.000024
v 160.002930 56.498245 2.000032
v 80.325645 -0.237480 2.000028
v 80.213783 -0.115969 2.000028
v 2.002926 -56.501755 2.000024
v 2.002926 56.498245 2.000032
v 80.016563 0.662838 2.000028
v 80.057106 0.822943 2.000028
v 81.404625 -0.417530 2.000028
v 81.248413 -0.471157 2.000028
v 81.948746 0.173544 2.000028
v 81.989288 0.333649 2.000028
v 81.792068 -0.115969 2.000028
v 81.882401 0.022296 2.000028
v 81.549873 -0.338923 2.000028
v 81.680206 -0.237480 2.000028
v 81.085503 -0.498341 2.000028
v 80.920349 -0.498341 2.000028
v 80.757439 -0.471157 2.000028
v 80.455978 -0.338923 2.000028
v 80.601227 -0.417530 2.000028
v 80.123451 0.022296 2.000028
v 80.057106 0.173544 2.000028
v 80.016563 0.333649 2.000028
v 80.002922 0.498244 2.000028
v 80.601227 1.414017 2.000029
v 80.757439 1.467644 2.000029
v 80.213783 1.112456 2.000029
v 80.123451 0.974191 2.000028
v 80.455978 1.335410 2.000029
v 80.325645 1.233967 2.000029
v 80.920349 1.494828 2.000029
v 81.085503 1.494828 2.000029
v 81.248413 1.467644 2.000029
v 81.549873 1.335410 2.000029
v 81.404625 1.414017 2.000029
v 81.792068 1.112456 2.000029
v 81.680206 1.233967 2.000029
v 81.948746 0.822943 2.000028
v 81.882401 0.974191 2.000028
v 81.989288 0.662838 2.000028
v 10.002926 -56.501762 70.000023
v 2.002926 -56.501762 70.000023
v 2.002926 56.498238 70.000031
v 10.002926 56.498238 70.000031
v 81.680206 1.233968 1.000028
v 81.549873 1.335410 1.000028
v 81.404625 1.414017 1.000028
v 81.404625 -0.417530 1.000028
v 81.549873 -0.338923 1.000028
v 80.016563 0.662838 1.000028
v 81.248413 1.467644 1.000028
v 81.792068 1.112456 1.000028
v 81.085503 1.494828 1.000028
v 81.882401 0.974191 1.000028
v 81.948746 0.822943 1.000028
v 80.920349 1.494828 1.000028
v 81.989288 0.662838 1.000028
v 80.757439 1.467644 1.000028
v 82.002922 0.498244 1.000028
v 80.601227 1.414017 1.000028
v 80.455978 1.335410 1.000028
v 81.989288 0.333649 1.000028
v 80.123451 0.974191 1.000028
v 81.792068 -0.115969 1.000028
v 80.213783 1.112456 1.000028
v 81.882401 0.022296 1.000028
v 81.948746 0.173544 1.000028
v 80.325645 1.233968 1.000028
v 80.002922 0.498244 1.000028
v 81.680206 -0.237480 1.000028
v 80.057106 0.822943 1.000028
v 80.057106 0.173544 1.000028
v 80.123451 0.022296 1.000028
v 80.920349 -0.498341 1.000028
v 80.016563 0.333649 1.000028
v 81.085503 -0.498341 1.000028
v 81.248413 -0.471157 1.000028
v 80.601227 -0.417530 1.000028
v 80.325645 -0.237480 1.000028
v 80.455978 -0.338923 1.000028
v 80.213783 -0.115969 1.000028
v 80.757439 -0.471157 1.000028
vn -0.000000 0.000000 -1.000000
vn 0.000000 -0.000000 1.000000
vn 0.000000 1.000000 0.000000
vn -1.000000 0.000000 0.000000
vn -0.000000 -1.000000 -0.000000
vn 1.000000 -0.000000 -0.000000
vn -1.000000 0.000000 0.000000
vn 0.000000 1.000000 0.000000
vn 0.082579 0.996584 0.000000
vn -0.082579 0.996584 0.000000
vn -0.986361 -0.164595 -0.000000
vn -1.000000 -0.000000 0.000000
vn 0.245485 0.969400 0.000000
vn 0.401695 0.915773 0.000000
vn 0.546948 0.837166 0.000000
vn 0.677282 0.735724 0.000000
vn 0.677282 0.735724 0.000000
vn 0.789141 0.614213 0.000000
vn 0.879474 0.475947 0.000000
vn 0.879474 0.475947 0.000000
vn 0.945817 0.324699 0.000000
vn 0.986361 0.164595 0.000000
vn 1.000000 -0.000000 -0.000000
vn 1.000000 -0.000000 -0.000000
vn -0.082579 0.996584 0.000000
vn -0.245485 0.969400 0.000000
vn -0.401695 0.915773 0.000000
vn -0.546948 0.837166 0.000000
vn -0.677282 0.735724 0.000000
vn -0.789140 0.614213 0.000000
vn -0.789141 0.614213 0.000000
vn -0.879474 0.475947 0.000000
vn -0.945817 0.324700 0.000000
vn -0.945817 0.324699 0.000000
vn -0.986361 0.164595 0.000000
vn -0.789140 -0.614213 -0.000000
vn -0.879474 -0.475947 -0.000000
vn -0.945817 -0.324699 -0.000000
vn -0.546948 -0.837167 -0.000000
vn -0.401695 -0.915773 -0.000000
vn -0.677282 -0.735724 -0.000000
vn -0.082579 -0.996584 -0.000000
vn 0.082579 -0.996584 -0.000000
vn -0.245486 -0.969400 -0.000000
vn 0.546948 -0.837166 -0.000000
vn 0.401695 -0.915773 -0.000000
vn 0.245485 -0.969400 -0.000000
vn 0.245486 -0.969400 -0.000000
vn 0.789141 -0.614213 -0.000000
vn 0.789140 -0.614213 -0.000000
vn 0.677282 -0.735724 -0.000000
vn 0.879474 -0.475948 -0.000000
vn 0.879474 -0.475947 -0.000000
vn 0.945817 -0.324699 -0.000000
vn 0.945817 -0.324700 -0.000000
vn 0.986361 -0.164595 -0.000000

g XTBREP
usemtl mat-2
f 1//1 2//1 3//1
f 2//1 1//1 4//1
f 5//2 6//2 7//2
f 8//2 9//2 7//2
f 7//2 6//2 8//2
f 10//2 5//2 11//2
f 8//2 10//2 12//2
f 10//2 11//2 12//2
f 8//2 12//2 9//2
f 5//2 7//2 11//2
f 5//3 10//3 2//3
f 5//3 2//3 4//3
f 6//4 5//4 4//4
f 6//4 4//4 1//4
f 8//5 1//5 3//5
f 1//5 8//5 6//5
f 10//6 3//6 2//6
f 3//6 10//6 8//6
f 13//2 14//2 15//2
f 16//2 17//2 18//2
f 19//2 20//2 21//2
f 22//2 23//2 14//2
f 24//2 14//2 25//2
f 14//2 13//2 25//2
f 26//2 14//2 27//2
f 14//2 24//2 27//2
f 28//2 14//2 29//2
f 14//2 26//2 29//2
f 14//2 28//2 22//2
f 14//2 30//2 31//2
f 23//2 30//2 14//2
f 32//2 18//2 31//2
f 14//2 31//2 18//2
f 33//2 18//2 34//2
f 18//2 32//2 34//2
f 18//2 33//2 16//2
f 18//2 35//2 36//2
f 17//2 35//2 18//2
f 18//2 37//2 38//2
f 36//2 37//2 18//2
f 18//2 38//2 19//2
f 19//2 39//2 40//2
f 19//2 38//2 20//2
f 41//2 19//2 42//2
f 19//2 21//2 42//2
f 43//2 19//2 44//2
f 19//2 41//2 44//2
f 19//2 43//2 39//2
f 19//2 45//2 46//2
f 40//2 45//2 19//2
f 47//2 15//2 46//2
f 19//2 46//2 15//2
f 48//2 15//2 49//2
f 15//2 47//2 49//2
f 50//2 15//2 51//2
f 15//2 48//2 51//2
f 52//2 15//2 53//2
f 15//2 50//2 53//2
f 13//2 15//2 54//2
f 15//2 52//2 54//2
f 15//7 14//7 9//7
f 15//7 9//7 12//7
f 55//8 7//8 9//8
f 55//8 14//8 18//8
f 56//8 55//8 18//8
f 55//8 9//8 14//8
f 57//6 56//6 18//6
f 57//6 18//6 19//6
f 58//5 15//5 12//5
f 58//5 57//5 19//5
f 19//5 15//5 58//5
f 12//5 11//5 58//5
f 11//6 7//6 55//6
f 11//6 55//6 58//6
f 58//1 56//1 57//1
f 56//1 58//1 55//1
f 59//2 60//2 61//2
f 62//2 63//2 64//2
f 65//2 66//2 61//2
f 59//2 61//2 66//2
f 65//2 67//2 68//2
f 68//2 66//2 65//2
f 68//2 67//2 69//2
f 70//2 71//2 69//2
f 69//2 67//2 70//2
f 71//2 72//2 73//2
f 72//2 71//2 70//2
f 74//2 75//2 76//2
f 72//2 74//2 73//2
f 77//2 78//2 79//2
f 80//2 81//2 82//2
f 62//2 64//2 83//2
f 84//2 85//2 63//2
f 86//2 87//2 88//2
f 89//2 90//2 91//2
f 92//2 93//2 94//2
f 95//2 92//2 96//2
f 96//2 87//2 95//2
f 92//2 95//2 93//2
f 88//2 90//2 86//2
f 96//2 88//2 87//2
f 89//2 91//2 83//2
f 86//2 90//2 89//2
f 64//2 63//2 85//2
f 83//2 91//2 62//2
f 78//2 77//2 84//2
f 84//2 77//2 85//2
f 78//2 80//2 79//2
f 81//2 75//2 82//2
f 80//2 82//2 79//2
f 74//2 76//2 73//2
f 81//2 76//2 75//2
f 31//9 90//10 88//9
f 71//11 73//12 13//12
f 88//9 96//13 32//13
f 32//13 31//9 88//9
f 92//14 34//14 96//13
f 32//13 96//13 34//14
f 33//15 92//14 94//15
f 92//14 33//15 34//14
f 94//15 93//16 16//17
f 16//17 33//15 94//15
f 95//18 17//18 93//16
f 16//17 93//16 17//18
f 35//19 95//18 87//20
f 95//18 35//19 17//18
f 87//20 86//21 36//21
f 36//21 35//19 87//20
f 89//22 37//22 86//21
f 36//21 86//21 37//22
f 38//23 89//22 83//24
f 89//22 38//23 37//22
f 31//9 30//25 90//10
f 91//26 30//25 23//26
f 30//25 91//26 90//10
f 23//26 22//27 62//27
f 62//27 91//26 23//26
f 28//28 63//28 22//27
f 62//27 22//27 63//28
f 84//29 28//28 29//29
f 28//28 84//29 63//28
f 29//29 26//30 78//31
f 78//31 84//29 29//29
f 27//32 80//32 26//30
f 78//31 26//30 80//32
f 81//33 27//32 24//34
f 27//32 81//33 80//32
f 24//34 25//35 76//35
f 76//35 81//33 24//34
f 76//35 25//35 73//12
f 25//35 13//12 73//12
f 66//36 68//37 53//37
f 69//38 54//11 52//38
f 48//39 61//40 60//39
f 50//36 51//41 59//41
f 67//42 46//42 70//43
f 65//44 49//40 47//44
f 75//45 74//46 39//46
f 40//47 72//48 45//43
f 41//49 79//50 44//51
f 43//45 44//51 82//51
f 77//52 41//49 42//53
f 41//49 77//52 79//50
f 42//53 21//54 85//55
f 85//55 77//52 42//53
f 20//56 64//56 21//54
f 85//55 21//54 64//56
f 83//24 20//56 38//23
f 20//56 83//24 64//56
f 75//45 43//45 82//51
f 44//51 79//50 82//51
f 39//46 74//46 40//47
f 43//45 75//45 39//46
f 72//48 70//43 45//43
f 74//46 72//48 40//47
f 67//42 47//44 46//42
f 70//43 46//42 45//43
f 61//40 49//40 65//44
f 65//44 47//44 67//42
f 51//41 48//39 60//39
f 48//39 49//40 61//40
f 50//36 59//41 66//36
f 51//41 60//39 59//41
f 53//37 68//37 52//38
f 50//36 66//36 53//37
f 69//38 71//11 54//11
f 68//37 69//38 52//38
f 13//12 54//11 71//11
